<mxfile>
    <diagram id="V3vRzwqk_VqXlD4Towf4" name="第 1 页">
        <mxGraphModel dx="737" dy="610" grid="1" gridSize="10" guides="1" tooltips="1" connect="1" arrows="1" fold="1" page="1" pageScale="1" pageWidth="827" pageHeight="1169" math="0" shadow="0">
            <root>
                <mxCell id="0"/>
                <mxCell id="1" parent="0"/>
                <mxCell id="10" value="AbstractClass" style="swimlane;fontStyle=1;align=center;verticalAlign=top;childLayout=stackLayout;horizontal=1;startSize=26;horizontalStack=0;resizeParent=1;resizeParentMax=0;resizeLast=0;collapsible=1;marginBottom=0;fontSize=16;" vertex="1" parent="1">
                    <mxGeometry x="80" y="110" width="200" height="120" as="geometry">
                        <mxRectangle x="80" y="120" width="140" height="26" as="alternateBounds"/>
                    </mxGeometry>
                </mxCell>
                <mxCell id="12" value="" style="line;strokeWidth=1;fillColor=none;align=left;verticalAlign=middle;spacingTop=-1;spacingLeft=3;spacingRight=3;rotatable=0;labelPosition=right;points=[];portConstraint=eastwest;" vertex="1" parent="10">
                    <mxGeometry y="26" width="200" height="8" as="geometry"/>
                </mxCell>
                <mxCell id="13" value="+ TemplateMethod()&#10;+ PrimitiveOperation1()&#10;+ PrimitiveOperation2()" style="text;strokeColor=none;fillColor=none;align=left;verticalAlign=top;spacingLeft=4;spacingRight=4;overflow=hidden;rotatable=0;points=[[0,0.5],[1,0.5]];portConstraint=eastwest;fontSize=16;" vertex="1" parent="10">
                    <mxGeometry y="34" width="200" height="86" as="geometry"/>
                </mxCell>
                <mxCell id="14" value="ConcreteClass" style="swimlane;fontStyle=1;align=center;verticalAlign=top;childLayout=stackLayout;horizontal=1;startSize=26;horizontalStack=0;resizeParent=1;resizeParentMax=0;resizeLast=0;collapsible=1;marginBottom=0;fontSize=16;" vertex="1" parent="1">
                    <mxGeometry x="80" y="360" width="200" height="100" as="geometry"/>
                </mxCell>
                <mxCell id="15" value="" style="line;strokeWidth=1;fillColor=none;align=left;verticalAlign=middle;spacingTop=-1;spacingLeft=3;spacingRight=3;rotatable=0;labelPosition=right;points=[];portConstraint=eastwest;" vertex="1" parent="14">
                    <mxGeometry y="26" width="200" height="8" as="geometry"/>
                </mxCell>
                <mxCell id="16" value="+ PrimitiveOperation1()&#10;+ PrimitiveOperation2()" style="text;strokeColor=none;fillColor=none;align=left;verticalAlign=top;spacingLeft=4;spacingRight=4;overflow=hidden;rotatable=0;points=[[0,0.5],[1,0.5]];portConstraint=eastwest;fontSize=16;" vertex="1" parent="14">
                    <mxGeometry y="34" width="200" height="66" as="geometry"/>
                </mxCell>
                <mxCell id="17" value="" style="endArrow=block;endSize=16;endFill=0;html=1;fontSize=16;" edge="1" parent="1">
                    <mxGeometry width="160" relative="1" as="geometry">
                        <mxPoint x="177" y="360" as="sourcePoint"/>
                        <mxPoint x="177" y="243" as="targetPoint"/>
                    </mxGeometry>
                </mxCell>
                <mxCell id="33" value="&lt;span&gt;&amp;nbsp;...&lt;br&gt;&amp;nbsp;PrimitiveOperation1()&lt;br&gt;&lt;/span&gt;&amp;nbsp;...&lt;br style=&quot;padding: 0px ; margin: 0px&quot;&gt;&lt;span&gt;&amp;nbsp;PrimitiveOperation2()&lt;/span&gt;" style="html=1;fontSize=16;align=left;" vertex="1" parent="1">
                    <mxGeometry x="440" y="120" width="180" height="90" as="geometry"/>
                </mxCell>
                <mxCell id="37" value="" style="endArrow=none;dashed=1;endFill=0;endSize=12;html=1;fontSize=16;entryX=0;entryY=0.5;entryDx=0;entryDy=0;startSize=9;rounded=1;startArrow=oval;startFill=0;" edge="1" parent="1" target="33">
                    <mxGeometry width="160" relative="1" as="geometry">
                        <mxPoint x="250" y="165" as="sourcePoint"/>
                        <mxPoint x="400" y="170" as="targetPoint"/>
                    </mxGeometry>
                </mxCell>
                <mxCell id="39" value="" style="rounded=0;whiteSpace=wrap;html=1;strokeColor=#FF3333;fillColor=none;fontSize=16;" vertex="1" parent="1">
                    <mxGeometry x="20" y="70" width="350" height="100" as="geometry"/>
                </mxCell>
                <mxCell id="40" value="" style="endArrow=classic;html=1;fontSize=16;fillColor=#e51400;strokeColor=#B20000;" edge="1" parent="1">
                    <mxGeometry width="50" height="50" relative="1" as="geometry">
                        <mxPoint x="370" y="100" as="sourcePoint"/>
                        <mxPoint x="440" y="80" as="targetPoint"/>
                    </mxGeometry>
                </mxCell>
                <mxCell id="41" value="稳定" style="text;html=1;strokeColor=#A50040;align=center;verticalAlign=middle;whiteSpace=wrap;rounded=1;fontSize=16;labelBorderColor=#000000;strokeWidth=3;fontColor=#FF3333;" vertex="1" parent="1">
                    <mxGeometry x="440" y="60" width="40" height="20" as="geometry"/>
                </mxCell>
                <mxCell id="42" value="" style="rounded=0;whiteSpace=wrap;html=1;strokeWidth=3;fillColor=none;fontSize=16;fontColor=#FF3333;strokeColor=#007FFF;" vertex="1" parent="1">
                    <mxGeometry x="20" y="320" width="340" height="170" as="geometry"/>
                </mxCell>
                <mxCell id="43" value="" style="endArrow=classic;html=1;fontSize=16;fontColor=#FF3333;fillColor=#1ba1e2;strokeColor=#006EAF;" edge="1" parent="1">
                    <mxGeometry width="50" height="50" relative="1" as="geometry">
                        <mxPoint x="364" y="400" as="sourcePoint"/>
                        <mxPoint x="440" y="400" as="targetPoint"/>
                    </mxGeometry>
                </mxCell>
                <mxCell id="44" value="变化" style="text;html=1;strokeColor=#001DBC;align=center;verticalAlign=middle;whiteSpace=wrap;rounded=1;fontSize=16;labelBorderColor=#000000;strokeWidth=3;fontColor=#ffffff;fillColor=#0050ef;" vertex="1" parent="1">
                    <mxGeometry x="440" y="390" width="40" height="20" as="geometry"/>
                </mxCell>
            </root>
        </mxGraphModel>
    </diagram>
</mxfile>